<?xml version="1.0" encoding="UTF-8"?>
<svg id="Layer_1" data-name="Layer 1" xmlns="http://www.w3.org/2000/svg" viewBox="0 0 360 360">
  <path d="m164.358,334.595c-2.243,5.44-6.862,9.858-12.438,11.786-5.581,2.001-12.005,1.467-17.176-1.45-7.166-3.889-11.6-12.207-10.735-20.334.697-8.841,7.621-16.681,16.276-18.541,9.15-2.248,19.345,2.591,23.431,11.066,2.743,5.362,2.979,11.921.641,17.474Z"/>
  <path d="m289.402,334.595c-2.243,5.44-6.862,9.858-12.438,11.786-5.581,2.001-12.005,1.467-17.176-1.45-7.166-3.889-11.6-12.207-10.735-20.334.697-8.841,7.621-16.681,16.276-18.541,9.15-2.248,19.345,2.591,23.431,11.066,2.743,5.362,2.979,11.921.641,17.474Z"/>
  <path d="m353.769,118.424c-.731-11.073-6.477-21.539-15.38-28.016-7.208-5.435-16.446-8.359-25.987-8.312-55.254-.015-155.062-.023-221.656,0l-1.446-10.45-8.483-54.681c-.361-2.576-2.566-4.493-5.167-4.493h-23.016l-.005-.038c-9.821-.016-19.696-.008-29.47.008-4.3-.14-8.584,1.516-11.804,4.572-3.235,3.071-5.124,7.294-5.21,11.625-.179,4.463,1.571,8.888,4.813,12.169,3.266,3.305,7.706,5.101,12.192,4.984,6.602.031,13.289.023,19.766.023,2.686-.004,6.097-.008,8.839-.008l1.022,6.221,4.728,33.381,3.585,25.271c1.82,13.639,3.639,27.27,5.459,40.908,4.627,34.672,9.253,69.352,13.887,104.024l.008.086c1.532,10.754,6.508,19.991,14.004,26.01,5.84,4.774,13.398,7.379,21.368,7.379.257,0,.513,0,.77-.008,24.486-.008,48.979-.008,73.473,0,36.258,0,73.753.008,110.641-.031,4.798.093,9.37-2.006,12.628-5.731,3.211-3.686,4.658-8.444,3.981-13.11-1.042-8.553-9.02-15.069-17.682-14.517-26.22.008-52.447,0-78.667,0-34.835,0-69.679,0-104.514.008h0c-.766-.019-1.467-.441-1.828-1.116-.584-1.092-2.23-11.939-2.72-15.633h171.02c.622,0,1.244,0,1.874.008,3.732.023,7.962.054,12.433-1.182,7.231-1.928,13.957-6.345,19.455-12.76,8.281-9.518,12.076-21.29,15.427-31.678l7.356-22.068c3.973-11.912,7.947-23.817,11.905-35.714,1.991-5.948,2.799-11.71,2.403-17.13Zm-33.887,5.871l-.039.109c-3.033,9.121-6.073,18.242-9.113,27.363-4.284,12.838-8.569,25.683-12.846,38.544-1.858,5.622-4.036,9.891-6.664,13.079-1.205,1.47-2.519,2.232-3.141,2.193l-.498-.016h-81.062c-33.024,0-66.039,0-99.063-.008-2.9-21.624-5.777-43.257-8.662-64.889-.397-2.947-.785-5.886-1.182-8.833-.723-5.443-1.446-10.886-2.177-16.329,35.66.023,99.584.016,132.577.016,28.436-.008,56.864-.008,85.316,0h.023c2.799,0,5.482,1.345,6.532,3.281l.086.148c.676,1.19.645,3.235-.086,5.342Z"/>
</svg>